<svg width="136" height="35" viewBox="0 0 136 35" fill="none" xmlns="http://www.w3.org/2000/svg">
<path d="M30.2451 7.75276C30.9035 8.46644 31.9061 8.94223 32.9384 8.94223C33.5289 8.94223 33.9749 8.67035 33.9749 8.24554C33.9749 7.75276 33.4821 7.48088 32.6113 7.19201C31.1967 6.71623 29.1278 6.12574 29.1278 3.59388C29.1278 1.74596 30.5085 0 33.2018 0C34.6461 0 35.963 0.458793 36.9316 1.30416L35.517 3.67884C34.7948 3.05013 33.9069 2.76126 33.1975 2.76126C32.4881 2.76126 32.2927 3.06712 32.2927 3.40697C32.2927 3.88275 32.7684 4.12065 33.6903 4.42651C35.1049 4.90229 37.11 5.57774 37.11 7.93968C37.11 10.3016 35.5297 11.7077 32.9851 11.7077C31.0947 11.7077 29.7778 11.147 28.7922 10.1997L30.2366 7.75701L30.2451 7.75276Z" fill="white"/>
<path d="M42.8195 2.83347C41.6343 2.83347 40.9928 4.08666 40.9928 5.85387C40.9928 7.62107 41.6343 8.87426 42.8195 8.87426C44.0047 8.87426 44.6589 7.60408 44.6589 5.85387C44.6589 4.10365 44.0005 2.83347 42.8195 2.83347ZM42.8195 0C45.8781 0 47.8152 2.39167 47.8152 5.85387C47.8152 9.31606 45.8739 11.7077 42.8195 11.7077C39.7651 11.7077 37.8237 9.29906 37.8237 5.85387C37.8237 2.40867 39.7609 0 42.8195 0Z" fill="white"/>
<path d="M49.0642 0.1875H52.2035V7.37951C52.2035 8.31409 52.6156 8.88758 53.5502 8.88758C54.4848 8.88758 54.8798 8.30984 54.8798 7.37951V0.1875H58.0192V7.34553C58.0192 10.094 56.2945 11.7041 53.5502 11.7041C50.8059 11.7041 49.0642 10.094 49.0642 7.36252V0.1875Z" fill="white"/>
<path d="M61.5365 2.98699H59.2681V0.1875H66.9104V2.98699H64.6589V11.5044H61.5365V2.98699Z" fill="white"/>
<path d="M74.0258 7.07365H71.2645V11.5044H68.1592V0.1875H71.2645V4.27416H74.0258V0.1875H77.1311V11.5044H74.0258V7.07365Z" fill="white"/>
<path d="M7.81521 14.6641L6.18819 20.2461L4.59091 14.6641H0.5V25.9767H3.52464V19.2605L5.51274 25.9767H6.85939L8.86449 19.2605V25.9767H11.8721V14.6641H7.81521Z" fill="white"/>
<path d="M18.1168 17.31C16.9316 17.31 16.2944 18.5632 16.2944 20.3304C16.2944 22.0976 16.9359 23.3508 18.1168 23.3508C19.2978 23.3508 19.9563 22.0806 19.9563 20.3304C19.9563 18.5802 19.2978 17.31 18.1168 17.31ZM18.1168 14.4766C21.1755 14.4766 23.1126 16.8682 23.1126 20.3304C23.1126 23.7926 21.1712 26.1843 18.1168 26.1843C15.0625 26.1843 13.1211 23.7756 13.1211 20.3304C13.1211 16.8852 15.0625 14.4766 18.1168 14.4766Z" fill="white"/>
<path d="M24.3616 14.6641H27.5009V21.8561C27.5009 22.7907 27.913 23.3641 28.8476 23.3641C29.7821 23.3641 30.1772 22.7864 30.1772 21.8561V14.6641H33.3165V21.8221C33.3165 24.5706 31.5918 26.1806 28.8476 26.1806C26.1033 26.1806 24.3616 24.5706 24.3616 21.8391V14.6641Z" fill="white"/>
<path d="M38.1339 20.1611V25.981H35.0625V14.6641H38.2146L40.9631 20.1441V14.6641H44.0175V25.981H41.0778L38.1339 20.1611Z" fill="white"/>
<path d="M47.5348 17.4636H45.2664V14.6641H52.9087V17.4636H50.6572V25.981H47.5348V17.4636Z" fill="white"/>
<path d="M56.4898 21.7201H58.4439L57.4753 17.4636L56.4898 21.7201ZM59.0386 24.4517H55.8993L55.5722 25.981H52.3691L55.5892 14.6641H59.353L62.573 25.981H59.37L59.0429 24.4517H59.0386Z" fill="white"/>
<path d="M66.4345 14.6641H63.3291V25.981H66.4345V14.6641Z" fill="white"/>
<path d="M71.2476 20.1611V25.981H68.1763V14.6641H71.3284L74.0769 20.1441V14.6641H77.1312V25.981H74.1916L71.2476 20.1611Z" fill="white"/>
<path d="M33.6903 34.6593C33.2017 34.8972 32.6113 34.9992 32.0845 34.9992C30.2281 34.9992 28.9834 33.7205 28.9834 32.0638C28.9834 30.407 30.2748 29.1113 32.0845 29.1113C32.6368 29.1113 33.1678 29.2303 33.6138 29.4342V31.0272C33.2102 30.7681 32.658 30.5557 32.1185 30.5557C31.1882 30.5557 30.5594 31.1801 30.5594 32.0468C30.5594 32.9134 31.1414 33.5548 32.1482 33.5548C32.692 33.5548 33.2272 33.3594 33.6945 33.0578V34.6593H33.6903Z" fill="white"/>
<path d="M37.4965 31.6311C37.7854 31.6311 37.9935 31.5928 38.1167 31.5121C38.2612 31.4272 38.3376 31.2742 38.3376 31.0618C38.3376 30.8197 38.2314 30.6668 38.07 30.5903C37.9383 30.5266 37.7556 30.4968 37.3988 30.4968H37.1099V31.6311H37.5008H37.4965ZM35.5339 29.2012H37.4668C38.138 29.2012 38.635 29.2904 39.0173 29.4858C39.5526 29.7534 39.9094 30.2335 39.9094 30.9769C39.9094 31.6778 39.5823 32.2173 38.8941 32.5147L40.3597 34.9106H38.5798L37.3478 32.7398H37.1014V34.9106H35.5254V29.2012H35.5339Z" fill="white"/>
<path d="M41.7915 29.2012V34.9149H45.4873V33.5427H43.3633V32.5954H45.0838V31.2997H43.3633V30.5733H45.3981V29.2012H41.7915Z" fill="white"/>
<path d="M49.7523 30.9386C49.6461 31.2997 49.5399 31.6311 49.4082 32.0049L49.217 32.5487H50.2875L50.1049 32.0049C49.9732 31.6183 49.8755 31.2955 49.7693 30.9386H49.7565H49.7523ZM49.0046 29.2012H50.5552L52.7939 34.9106H51.0819L50.6911 33.7424H48.7965L48.3929 34.9106H46.7659L49.0046 29.2012Z" fill="white"/>
<path d="M53.7796 34.9145V29.2051H55.292L56.7193 31.2866L58.1424 29.2051H59.642V34.9145H58.066V33.0538C58.066 32.6035 58.0745 32.1065 58.083 31.7115L58.066 31.703C57.8366 32.064 57.5859 32.4379 57.3395 32.799L56.6811 33.7633L56.0141 32.799C55.7635 32.4379 55.5171 32.064 55.2877 31.703L55.2707 31.7115C55.2792 32.1065 55.2877 32.6035 55.2877 33.0538V34.9145H53.7754H53.7796Z" fill="white"/>
<path d="M61.3538 29.2012V34.9149H65.0538V33.5427H62.9298V32.5954H64.646V31.2997H62.9298V30.5733H64.9604V29.2012H61.3538Z" fill="white"/>
<path d="M68.8645 31.6311C69.1533 31.6311 69.3615 31.5928 69.4847 31.5121C69.6291 31.4272 69.7056 31.2742 69.7056 31.0618C69.7056 30.8197 69.5994 30.6668 69.438 30.5903C69.3063 30.5266 69.1236 30.4968 68.7668 30.4968H68.4779V31.6311H68.8687H68.8645ZM66.9019 29.2012H68.8347C69.5059 29.2012 70.003 29.2904 70.3853 29.4858C70.9205 29.7534 71.2816 30.2335 71.2816 30.9769C71.2816 31.6778 70.9545 32.2173 70.2663 32.5147L71.7319 34.9106H69.952L68.72 32.7398H68.4779V34.9106H66.9019V29.2012Z" fill="white"/>
<path d="M74.3234 32.3575L72.1738 29.2012H74.009L74.5145 30.0041C74.7227 30.3269 74.9351 30.6753 75.1262 30.9981H75.1432C75.3429 30.6668 75.5383 30.3354 75.738 30.0211L76.252 29.2012H78.0404L75.8994 32.3235V34.9106H74.3234V32.3533V32.3575Z" fill="white"/>
<path d="M111.32 23.9847C111.32 23.9847 111.604 25.3696 112.335 25.8156C112.335 25.8156 110.092 27.0179 110.351 27.9269C110.61 28.836 111.337 29.0697 111.163 29.7706C110.921 30.7477 109.438 32.9439 110.016 33.6831C110.593 34.4223 110.955 34.8513 110.955 34.8513H109.047C109.047 34.8513 108.533 33.6491 108.975 33.0841C109.417 32.5191 109.608 31.2022 109.472 29.8981C109.336 28.5981 109.034 27.5744 109.65 26.8437C110.266 26.1173 111.32 23.9805 111.32 23.9805" fill="white"/>
<path d="M126.583 27.6852C126.634 27.6639 127.917 26.9375 128.312 26.0879C128.312 26.0879 128.678 26.9333 129.238 27.3283C129.799 27.7234 130.819 28.6665 130.666 29.9664C130.513 31.2663 130.572 31.3003 130.789 31.8653C131.001 32.4303 130.997 33.8576 130.555 34.805L129.221 33.6622C129.221 33.6622 130.122 32.9188 129.608 31.929C129.09 30.935 129.871 31.0666 129.629 30.0811C129.383 29.0913 126.592 27.6852 126.592 27.6852" fill="white"/>
<path d="M106.609 19.4173C106.842 20.8914 108.542 21.6221 108.542 21.6221C104.417 21.7028 104.162 18.3086 104.162 18.3086C103.716 19.4301 103.665 22.6544 105.98 24.0478C108.291 25.4369 112.152 21.1038 112.157 21.0996C111.719 21.7963 111.553 22.6374 111.643 23.5252C111.813 25.2287 113.656 26.0741 113.66 26.0741C113.41 25.781 113.265 25.3392 113.185 25.0588C113.002 24.4343 112.853 23.8056 112.892 23.1514C113.134 19.0265 118.41 20.696 118.949 20.8532C118.949 20.8532 117.594 19.6892 115.287 19.4428C115.287 19.4428 113.588 19.2687 111.434 20.0503C108.796 21.0019 106.613 19.4216 106.613 19.4216" fill="white"/>
<path d="M135.483 20.6166C135.483 20.6166 134.523 17.8723 133.915 16.7805C133.38 15.8205 134.451 14.168 134.451 14.168C134.451 14.168 133.096 15.3277 131.983 15.4297C130.87 15.5359 128.809 15.846 125.882 17.4857C122.955 19.1297 116.995 18.0635 116.995 18.0635C116.995 18.0635 118.945 19.2997 121.571 20.1875C122.887 20.6336 124.442 20.9437 126.209 20.0856C126.209 20.0856 126.18 20.6208 125.64 21.0839C125.64 21.0839 128.155 20.0431 129.298 17.5027C129.298 17.5027 129.489 17.9997 129.298 18.3651C129.298 18.3651 130.81 16.7848 132.042 16.7933C133.848 16.8103 135.479 20.6166 135.479 20.6166" fill="white"/>
<path d="M131.129 17.8633C131.129 17.8633 131.027 19.5243 132.267 20.153C133.508 20.7775 133.695 21.7163 133.695 21.7163C133.695 21.7163 134.408 21.9627 135.411 21.0026C135.411 21.0026 134.374 21.5804 133.741 20.803C133.108 20.0298 133.389 18.7426 133.363 18.5897C133.363 18.5897 133.011 19.5328 132.429 19.4096C131.847 19.2864 131.384 19.023 131.129 17.8633Z" fill="white"/>
<path d="M128.414 23.1615C127.743 23.1275 127.637 22.2057 127.637 22.2057C127.637 22.2057 127.671 24.9839 125.619 27.4776C124.311 29.0663 122.378 31.4495 121.541 32.7622C121.401 32.9831 121.107 32.5753 121.422 32.0612C121.621 31.7341 121.987 31.2201 122.369 30.5872C122.717 30.0859 123.036 29.5549 123.308 28.9984C123.495 28.6118 123.678 28.2125 123.775 27.7919C123.873 27.3756 123.881 26.9465 123.881 26.5217C123.881 26.4198 123.903 26.3178 123.903 26.2159C123.945 25.7401 124.043 25.2643 124.098 24.7928C124.141 24.5166 124.183 24.2405 124.221 23.9644C124.243 23.82 124.264 23.6755 124.285 23.5353C124.323 23.272 124.366 23.0043 124.404 22.7409C121.575 26.407 119.119 26.0375 118.227 25.7316C119.676 24.1046 119.54 22.4733 119.54 22.4733C118.788 23.7647 118.164 24.6016 117.365 25.3323C115.36 27.159 113.678 27.3586 113.172 28.0128C112.777 28.5226 113.287 29.2618 113.287 29.2618C113.287 29.2618 111.915 28.5226 111.838 27.8981C111.74 27.0527 113.44 26.3136 113.44 26.3136C113.44 26.3136 111.503 26.6279 111.231 27.7324C110.955 28.8497 114.277 29.9075 114.48 30.7401C114.684 31.5727 113.406 32.1929 113.406 32.1929L114.03 34.0451C114.03 34.0451 115.079 32.1207 115.525 31.39C115.967 30.6594 114.404 29.1131 114.111 28.7732C114.013 28.6628 113.966 28.5566 113.945 28.4674C113.911 28.3144 114.009 28.1615 114.153 28.119C115.742 27.6347 116.864 26.9848 117.658 26.2923C119.893 28.3782 122.675 27.4096 123.44 27.0867C123.499 27.2567 123.486 27.4351 123.44 27.673C123.206 28.5141 122.756 29.7588 121.915 30.8038C120.5 32.5668 120.772 33.3357 120.946 33.7053C121.12 34.0706 120.904 34.848 120.904 34.848H122.989C122.989 34.848 122.271 34.2023 121.957 33.5226C121.796 33.1785 121.851 32.7707 122.076 32.4691C122.565 31.8106 123.057 31.1607 123.55 30.5107C124.404 29.3849 125.955 27.6942 127.051 26.8276C127.7 26.3136 128.227 25.6042 128.631 24.882C128.958 24.3 129.209 23.6798 129.395 23.0341C129.502 22.6687 129.582 22.2991 129.646 21.9253C129.71 21.5345 129.672 21.0672 129.774 20.6934C129.774 20.6934 129.081 23.187 128.41 23.1573" fill="white"/>
<path d="M93.9366 9.37647C93.9366 9.37647 94.0046 8.68828 93.1932 8.55234C92.539 8.50986 91.872 8.48438 91.1881 8.48438C90.5041 8.48438 89.8542 8.50562 89.2085 8.5481C88.3716 8.67554 88.4396 9.37647 88.4396 9.37647C89.2212 9.27027 90.1218 9.2023 91.1583 9.2023C92.1949 9.2023 93.1379 9.27452 93.9408 9.38497C93.9408 9.38072 93.9366 9.37223 93.9366 9.37223" fill="white"/>
<path d="M89.6675 11.1257C89.6675 11.1257 89.8756 9.96172 92.0209 9.75781C92.0209 9.75781 89.7992 9.84277 89.0728 9.7918L89.3786 10.5012V11.079L89.6675 11.1257Z" fill="white"/>
<path d="M94.3659 12.6681C93.0405 11.5593 93.3548 9.75391 93.3548 9.75391C93.3548 9.75391 93.0532 10.1702 92.9343 10.8542C92.8238 11.4829 92.9725 12.1328 93.3293 12.6554C93.3293 12.6554 93.3336 12.6596 93.3378 12.6638C93.5035 12.906 93.8433 13.2671 94.145 13.6239C94.2257 13.7259 94.4211 14.0232 94.5698 14.6435C94.8714 14.567 95.1688 14.4905 95.4661 14.4056C95.2452 13.7471 94.8799 13.1014 94.3659 12.6638" fill="white"/>
<path d="M89.0768 9.7918L89.0386 10.344C89.0004 10.926 88.8092 11.8734 88.0191 12.6635C87.0335 13.6448 86.7404 14.9022 86.6597 15.7519C87.0165 15.7519 87.3776 15.7434 87.7344 15.7264C87.6962 15.2506 87.7684 14.4095 88.4396 13.3899C88.6818 13.1138 88.9154 12.8504 89.0471 12.6635C89.7778 11.5972 89.4082 11.3636 89.9562 10.548C90.0157 10.4587 90.1091 10.3823 90.2196 10.3143C90.2451 10.3143 90.2663 10.3143 90.2918 10.3143C90.6401 10.0807 91.1796 9.85977 92.0208 9.76206C91.7489 9.75781 91.4727 9.75781 91.1881 9.75781C90.4447 9.75781 89.7395 9.77056 89.0726 9.79605" fill="white"/>
<path d="M82.4925 28.3427C82.4925 28.177 82.4117 28.0198 82.2843 27.9306C82.1569 27.8414 82.0039 27.8329 81.885 27.8797C81.766 27.9264 81.6853 28.0113 81.6471 28.0963C81.6046 28.1813 81.5919 28.262 81.5919 28.3427C81.5919 28.4234 81.6046 28.5041 81.6471 28.5891C81.6896 28.674 81.766 28.7633 81.885 28.8057C82.0039 28.8525 82.1569 28.8397 82.2843 28.7505C82.4117 28.6655 82.4925 28.5041 82.4925 28.3384M82.4925 28.3384C82.4925 28.6571 82.297 29.0266 81.885 29.1243C81.6853 29.1711 81.4474 29.1243 81.2648 28.9757C81.0821 28.8312 80.9631 28.5848 80.9674 28.3384C80.9674 28.0921 81.0821 27.8457 81.2648 27.7012C81.4474 27.5525 81.6853 27.5058 81.885 27.5525C82.297 27.6545 82.4925 28.0241 82.4925 28.3384Z" fill="white"/>
<path d="M95.2835 10.4425C95.9164 10.5147 96.7788 10.7951 97.0932 11.2581C97.4925 11.8486 97.2546 13.3524 97.1739 13.79C97.1654 13.8325 97.1569 13.8707 97.1484 13.9132C97.3863 13.841 97.6242 13.773 97.8578 13.6965C97.9173 13.4204 98.0022 13.1698 98.0999 12.9446C98.0999 12.9446 98.0999 12.9404 98.0999 12.9361C98.1127 12.9064 98.1254 12.8766 98.1424 12.8469C98.1424 12.8427 98.1467 12.8384 98.1509 12.8299C98.1764 12.7789 98.2019 12.728 98.2274 12.677C98.2274 12.6727 98.2359 12.6642 98.2359 12.66C99.1025 11.0882 100.789 10.931 100.789 10.931V10.7314C99.2979 10.3703 97.0294 9.9752 93.9028 9.82227L93.9453 10.3745C93.9453 10.3745 94.4508 10.3788 95.2835 10.4425Z" fill="white"/>
<path d="M104.91 30.0889C104.803 30.0719 104.697 30.0549 104.587 30.0379C104.141 29.9699 103.695 29.9317 103.278 29.8977C102.862 29.868 102.433 29.851 101.961 29.8552C101.796 29.8552 101.643 29.8595 101.498 29.8637C101.511 29.9827 101.503 30.0974 101.477 30.2078C101.622 30.2333 101.775 30.2588 101.936 30.28C102.399 30.348 102.828 30.3947 103.244 30.4202C103.614 30.4415 104.005 30.4627 104.404 30.4627C104.455 30.4627 104.506 30.4627 104.561 30.4627C104.667 30.4627 104.778 30.4627 104.884 30.4585C104.846 30.8365 104.757 31.2104 104.621 31.5715C104.442 32.0473 104.187 32.4806 103.873 32.8544C103.775 32.7397 103.682 32.6292 103.593 32.5273C103.3 32.1917 102.985 31.8773 102.688 31.5885C102.391 31.2996 102.072 31.015 101.719 30.7218C101.6 30.6241 101.486 30.5307 101.379 30.45C101.32 30.5477 101.244 30.6369 101.15 30.7049C101.239 30.8111 101.333 30.9215 101.439 31.0362C101.745 31.3803 102.038 31.6862 102.344 31.975C102.645 32.2597 102.972 32.5613 103.312 32.8416C103.419 32.9309 103.533 33.0201 103.648 33.1093C103.283 33.4831 102.854 33.7847 102.369 34.0056C102.051 34.1501 101.719 34.252 101.384 34.3157C101.384 34.1543 101.375 33.9929 101.367 33.8272C101.345 33.3812 101.294 32.9393 101.244 32.523C101.188 32.1067 101.116 31.6862 101.027 31.2359C100.997 31.0872 100.963 30.947 100.933 30.8153C100.823 30.8578 100.708 30.8705 100.594 30.862C100.594 30.998 100.602 31.1382 100.611 31.2911C100.636 31.7499 100.679 32.1789 100.734 32.5953C100.793 33.0073 100.861 33.4449 100.955 33.8824C100.989 34.0396 101.023 34.1968 101.061 34.3582C100.407 34.4262 99.7397 34.3327 99.1067 34.0778C98.9241 34.0014 98.7456 33.9164 98.5715 33.8187C98.6564 33.7083 98.7329 33.6021 98.8009 33.5001C99.0642 33.1305 99.3021 32.7439 99.5188 32.3871C99.7354 32.0218 99.9436 31.6394 100.152 31.2231C100.224 31.0787 100.288 30.9427 100.347 30.8111C100.241 30.7728 100.143 30.7091 100.058 30.6284C99.9733 30.7431 99.8884 30.862 99.7949 30.998C99.5273 31.3803 99.2936 31.7456 99.077 32.111C98.8646 32.4763 98.6437 32.8671 98.444 33.275C98.3888 33.3854 98.3293 33.5043 98.2741 33.6318C97.6072 33.173 97.0761 32.523 96.7448 31.7456C96.7236 31.6947 96.7023 31.6479 96.6853 31.597C96.8085 31.5672 96.9275 31.5332 97.0422 31.5035C97.4712 31.3888 97.8918 31.2444 98.2869 31.1084C98.6819 30.9682 99.077 30.8068 99.4976 30.6156C99.642 30.5477 99.7779 30.484 99.9054 30.4245C99.8884 30.3947 99.8714 30.365 99.8586 30.331C99.8247 30.2546 99.8034 30.1738 99.7949 30.0974C99.659 30.1314 99.5145 30.1696 99.3574 30.2121C98.9156 30.3353 98.5077 30.467 98.1169 30.6072C97.7261 30.7516 97.314 30.913 96.9062 31.0999C96.7958 31.1509 96.6853 31.2019 96.5706 31.2571C96.3157 30.4032 96.32 29.4942 96.5876 28.636C96.7108 28.6998 96.8425 28.7635 96.9742 28.8272C97.3693 29.0141 97.7771 29.1755 98.1637 29.3242C98.5502 29.4687 98.9496 29.6004 99.3829 29.7278C99.5315 29.7703 99.6675 29.8085 99.7992 29.8425C99.8162 29.7235 99.8544 29.6131 99.9139 29.5111C99.7949 29.4517 99.6632 29.3879 99.523 29.3242C99.1067 29.1331 98.7202 28.9716 98.3336 28.8272C97.947 28.687 97.5349 28.5426 97.1144 28.4236C96.9742 28.3812 96.834 28.3472 96.7023 28.3132C97.1016 27.3021 97.8323 26.4908 98.7796 26.015C98.8264 26.1636 98.8731 26.3081 98.9198 26.444C99.0642 26.8688 99.2299 27.2851 99.3913 27.6717C99.5528 28.054 99.7397 28.4534 99.9521 28.8569C100.024 28.9929 100.092 29.1203 100.156 29.2435C100.203 29.2095 100.254 29.1798 100.305 29.1586C100.356 29.1331 100.411 29.1161 100.466 29.1033C100.428 28.9716 100.381 28.8314 100.33 28.687C100.181 28.2495 100.024 27.8501 99.8586 27.4636C99.6887 27.0812 99.5061 26.6734 99.2979 26.2783C99.2299 26.1467 99.1577 26.015 99.0855 25.8833C99.9054 25.5477 100.789 25.484 101.634 25.6921C101.571 25.8535 101.511 26.0192 101.452 26.1806C101.303 26.597 101.18 27.0175 101.069 27.4168C100.959 27.8162 100.865 28.2282 100.78 28.6785C100.751 28.823 100.729 28.9589 100.708 29.0906C100.823 29.0991 100.938 29.1331 101.04 29.184C101.086 29.0608 101.133 28.9334 101.184 28.7932C101.333 28.3642 101.46 27.9563 101.566 27.557C101.668 27.162 101.775 26.7329 101.851 26.2953C101.885 26.1254 101.91 25.9512 101.936 25.7813C102.021 25.8111 102.11 25.8408 102.195 25.8748C102.934 26.1721 103.563 26.6607 104.035 27.2936C103.899 27.3701 103.763 27.4508 103.635 27.5315C103.261 27.7609 102.905 28.0116 102.573 28.2495C102.242 28.4916 101.91 28.755 101.566 29.0481C101.452 29.1458 101.345 29.2393 101.248 29.3285C101.328 29.4092 101.396 29.5026 101.443 29.6173C101.558 29.5536 101.677 29.4814 101.804 29.4007C102.187 29.1628 102.535 28.9292 102.866 28.6828C103.193 28.4364 103.546 28.1687 103.873 27.8841C103.992 27.7822 104.107 27.6802 104.221 27.574C104.349 27.7737 104.459 27.9861 104.553 28.207C104.812 28.8102 104.931 29.4517 104.914 30.0931M105.097 27.9606C104.574 26.7329 103.618 25.7941 102.407 25.3055C101.197 24.8213 99.8756 24.851 98.6862 25.3905C97.4967 25.93 96.5876 26.9156 96.1161 28.1645C95.6445 29.4134 95.6743 30.7771 96.201 32.0048C96.7236 33.2325 97.6794 34.1755 98.8901 34.6598C99.4593 34.8892 100.054 35.0039 100.649 35.0039C101.316 35.0039 101.978 34.8595 102.607 34.5749C103.797 34.0354 104.71 33.0498 105.177 31.7966C105.649 30.5477 105.619 29.184 105.097 27.9563" fill="white"/>
<path d="M101.235 29.9781C101.235 29.8549 101.171 29.7359 101.074 29.6807C100.976 29.6212 100.865 29.6255 100.785 29.6679C100.704 29.7104 100.662 29.7784 100.649 29.8379C100.632 29.8973 100.632 29.9356 100.632 29.9781C100.632 30.0205 100.632 30.063 100.649 30.1225C100.666 30.182 100.708 30.2499 100.789 30.2924C100.87 30.3349 100.984 30.3391 101.078 30.2797C101.176 30.2202 101.239 30.1013 101.239 29.9781M101.239 29.9781C101.239 30.2117 101.112 30.5006 100.789 30.594C100.632 30.6408 100.441 30.6068 100.292 30.4921C100.143 30.3774 100.041 30.1777 100.046 29.9781C100.046 29.7784 100.143 29.5745 100.292 29.464C100.445 29.3493 100.636 29.3154 100.793 29.3621C101.116 29.4598 101.248 29.7487 101.243 29.9823" fill="white"/>
<path d="M80.8823 29.1708C80.8016 29.0815 80.7337 28.9796 80.6784 28.8691C80.5043 28.9668 80.3343 29.0688 80.1644 29.1708C80.0115 29.2642 79.8628 29.3577 79.7141 29.4511V30.1351C79.9563 29.9482 80.1941 29.757 80.4278 29.5616C80.5807 29.4341 80.7337 29.3024 80.8823 29.1708Z" fill="white"/>
<path d="M80.003 27.9644C79.9053 27.9474 79.8076 27.9346 79.7141 27.9219V28.4359C79.7991 28.4359 79.884 28.4359 79.969 28.4359C80.1687 28.4359 80.3683 28.4359 80.568 28.4274C80.568 28.3977 80.568 28.3679 80.568 28.3382C80.568 28.2447 80.5807 28.1513 80.5977 28.0621C80.4023 28.0238 80.2026 27.9898 80.0072 27.9601" fill="white"/>
<path d="M81.0183 27.392C80.8951 27.2433 80.7676 27.0903 80.6402 26.9459C80.3386 26.6018 80.0327 26.2662 79.7141 25.9434V26.7547C79.9138 26.9374 80.1177 27.1158 80.3216 27.29C80.4703 27.4132 80.619 27.5364 80.7719 27.6596C80.8399 27.5576 80.9248 27.4684 81.0183 27.392Z" fill="white"/>
<path d="M86.2817 23.6413C85.0625 22.3838 83.4439 21.6914 81.7235 21.6914C81.031 21.6914 80.3513 21.8019 79.7141 22.0185V22.6982C80.3003 22.4773 80.9206 22.3541 81.562 22.3329C81.5365 22.558 81.5111 22.8171 81.4983 23.038C81.4516 23.6285 81.4388 24.219 81.4303 24.8053C81.4303 25.3957 81.4516 25.982 81.4941 26.5725C81.5068 26.7679 81.5238 26.9633 81.545 27.1587C81.6045 27.1502 81.664 27.146 81.7235 27.146C81.7829 27.146 81.8466 27.1502 81.9019 27.1587C81.9231 26.9633 81.9401 26.7679 81.9529 26.5725C81.9953 25.982 82.0208 25.3957 82.0166 24.8053C82.0123 24.2148 81.9996 23.6243 81.9529 23.038C81.9359 22.8256 81.9104 22.5538 81.8891 22.3329C83.1338 22.3669 84.3148 22.8087 85.2876 23.5861C85.1049 23.7645 84.9053 23.9726 84.7353 24.1553C84.3445 24.5716 83.9792 25.0134 83.6224 25.4595C83.2655 25.9055 82.9299 26.3728 82.6071 26.8486C82.5051 27.0015 82.4032 27.1544 82.3054 27.3116C82.4116 27.3753 82.5051 27.4561 82.5858 27.5495C82.7133 27.4178 82.8407 27.2861 82.9639 27.1544C83.3505 26.7339 83.7243 26.3006 84.0769 25.8503C84.4295 25.4 84.7736 24.9412 85.0922 24.4612C85.2324 24.253 85.3896 24.0109 85.5212 23.79C85.6317 23.8877 85.7379 23.9896 85.8441 24.0958C86.6215 24.903 87.1525 25.8928 87.3989 26.976C87.1738 26.9973 86.9444 27.0185 86.7192 27.0482C86.1542 27.1205 85.5935 27.2224 85.037 27.3371C84.4805 27.4518 83.9282 27.5962 83.3802 27.7577C83.189 27.8129 83.0021 27.8724 82.8152 27.9361C82.8534 28.0465 82.8789 28.1655 82.8832 28.2929C83.0786 28.2759 83.274 28.2505 83.4737 28.225C84.0387 28.1485 84.5994 28.055 85.1559 27.9361C85.7124 27.8129 86.2647 27.6812 86.8127 27.5155C87.0336 27.4518 87.2502 27.3838 87.4669 27.3074C87.5263 27.6472 87.5518 27.9956 87.5518 28.3482C87.5518 29.27 87.3522 30.1621 86.9741 30.9692C86.8297 30.8715 86.6725 30.7696 86.528 30.6761C86.031 30.349 85.5127 30.0559 84.9945 29.7713C84.4762 29.4866 83.941 29.2275 83.4014 28.9854C83.2145 28.9004 83.0234 28.8197 82.828 28.739C82.7897 28.8537 82.7345 28.9641 82.6665 29.0576C82.8407 29.1765 83.0149 29.2912 83.189 29.4059C83.6903 29.7288 84.2001 30.0304 84.7226 30.3108C85.2451 30.5869 85.7719 30.8588 86.3156 31.0967C86.4728 31.1689 86.647 31.2454 86.8042 31.3091C86.545 31.7764 86.2264 32.2139 85.8484 32.6005C85.3556 33.1103 84.7906 33.5138 84.1746 33.8112C84.1109 33.5945 84.0387 33.3652 83.9707 33.157C83.788 32.592 83.5756 32.044 83.3547 31.496C83.1296 30.9522 82.8832 30.417 82.6198 29.8902C82.5306 29.716 82.4414 29.5419 82.3479 29.3677C82.246 29.4314 82.1355 29.4824 82.0208 29.5121C82.076 29.7033 82.1355 29.8902 82.1992 30.0771C82.3862 30.6379 82.5901 31.1944 82.8152 31.7339C83.0446 32.2776 83.2825 32.8129 83.5544 33.3397C83.6521 33.5393 83.7625 33.7517 83.873 33.9471C83.2018 34.219 82.4796 34.3635 81.7362 34.3635C81.2392 34.3635 80.7506 34.2997 80.2791 34.1765C80.3726 33.9514 80.466 33.705 80.5467 33.4756C80.7506 32.9276 80.9163 32.3668 81.082 31.8104C81.2392 31.2496 81.3751 30.6804 81.4898 30.1069C81.528 29.92 81.562 29.733 81.5918 29.5461C81.4686 29.5291 81.3539 29.4951 81.2434 29.4442C81.1712 29.6226 81.1075 29.801 81.0438 29.9794C80.8441 30.5274 80.6657 31.0839 80.5128 31.6447C80.3598 32.2097 80.2154 32.7747 80.1049 33.3482C80.0582 33.5903 80.0072 33.8452 79.969 34.0916C79.8883 34.0661 79.8033 34.0364 79.7226 34.0024V34.6821C80.3641 34.8987 81.0395 35.0092 81.732 35.0092C83.4524 35.0092 85.0752 34.3167 86.2901 33.0593C87.5094 31.8019 88.1763 30.1324 88.1763 28.3524C88.1763 26.5725 87.5051 24.903 86.2901 23.6455" fill="white"/>
<path d="M88.4524 9.82227C83.4822 10.0644 80.6869 10.9183 79.7141 11.2794V13.4884C79.901 13.6965 80.1559 13.9387 80.4745 14.1766C80.6742 12.7195 81.9019 12.2097 81.9019 12.2097C81.2052 13.1273 81.3836 14.7076 81.3836 14.7076C81.562 14.784 81.7489 14.8562 81.9486 14.9115C81.9486 14.9115 81.8934 11.3346 84.7269 10.8333C86.0862 10.5912 87.0421 10.4807 87.641 10.4297C87.8917 10.4127 88.1508 10.4 88.4184 10.383L88.4609 9.83076L88.4524 9.82227Z" fill="white"/>
<path d="M99.7439 18.4365C99.9818 18.5214 100.224 18.5766 100.47 18.6064V23.9292C100.47 23.9292 100.458 23.9292 100.449 23.9292C100.135 23.9292 99.8204 23.9632 99.5103 24.0184C98.9326 24.1289 98.3761 24.3583 97.8918 24.6854C96.2987 25.4458 95.9249 24.473 95.8442 23.7806L95.7168 15.3099C96.184 15.2037 96.6471 15.0975 97.1144 14.9955C97.1399 15.2929 97.1951 15.586 97.2843 15.8706C97.6709 17.0601 98.597 18.0584 99.7439 18.4365ZM94.7652 16.7202C94.7524 18.5554 94.7567 22.145 94.7652 23.9207V25.0465C94.7652 25.0465 94.7694 25.9853 93.6182 26.1255C93.3378 26.151 93.0787 26.1297 92.9428 26.117C92.9088 26.117 92.879 26.1085 92.845 26.1043C92.2248 26.0193 91.4389 25.8451 90.67 25.484C91.868 25.5308 93.2231 25.4331 94.4678 24.9913C94.4678 24.9913 90.5426 25.484 89.3446 24.5367C88.8986 24.1841 88.5842 23.7508 88.3548 23.3133C87.9895 22.5868 87.7643 21.682 87.7813 20.5478C87.8196 17.8672 87.8026 16.8987 87.7898 16.5588C87.981 16.5588 88.1764 16.5546 88.3676 16.5503C89.4678 16.5036 90.5638 16.3719 91.6471 16.1892C91.7151 16.1765 91.783 16.1637 91.851 16.151L92.2801 19.405L92.5222 16.0235C92.7303 15.9811 92.9343 15.9428 93.1382 15.8961L93.5715 20.5393L93.8136 15.7517C94.111 15.6879 94.4126 15.6157 94.7142 15.5478C94.7482 15.8834 94.7694 16.2742 94.7652 16.7287M101.023 18.6446C101.18 18.6446 101.337 18.6319 101.49 18.6106C101.634 18.5894 101.775 18.5554 101.91 18.5172V24.2394C101.741 24.1671 101.566 24.1034 101.384 24.0609C101.265 24.0269 101.142 24.0015 101.018 23.9845V18.6446H101.023ZM86.6428 22.179C86.2902 21.8647 85.8824 21.6055 85.4831 21.3889C85.0116 21.1297 84.5061 20.9258 83.9835 20.7899C83.461 20.6582 82.9215 20.5902 82.3905 20.5987C82.2291 20.5987 82.0676 20.603 81.9062 20.6115V15.5223C82.9088 15.9768 83.9878 16.2487 85.071 16.3931C85.5936 16.4653 86.1161 16.5121 86.6428 16.5376V22.1833V22.179ZM81.354 20.6497C81.0524 20.6837 80.755 20.7304 80.4661 20.7984V14.6812C80.7465 14.8893 81.0481 15.0762 81.354 15.2419V20.6455V20.6497ZM125.929 21.5418C124.85 21.597 123.767 21.4993 122.713 21.2699C120.594 20.8069 118.618 19.8298 116.707 18.7636C114.791 17.6973 112.917 16.5206 110.904 15.5945C108.894 14.6727 106.762 13.9717 104.544 13.7551C102.327 13.5342 100.109 13.84 97.964 14.2946C95.8145 14.7449 93.7032 15.3269 91.5664 15.7347C90.5001 15.9428 89.4253 16.1043 88.3463 16.1765C87.2673 16.236 86.1798 16.2275 85.1008 16.1085C84.026 15.9938 82.9555 15.7814 81.9445 15.3693C81.4347 15.1739 80.9547 14.9105 80.5001 14.6089C80.2197 14.4135 79.9479 14.2011 79.71 13.9547V21.4016C80.5936 21.2062 82.7983 20.8749 84.8332 21.784C87.4415 22.9522 88.6055 26.597 88.6055 26.597H88.7371C89.3998 26.6565 90.3769 26.7202 91.184 26.7202C93.2826 26.7202 95.0031 26.4441 95.8739 26.2699C96.2648 26.1935 96.4814 26.134 96.4814 26.134C96.9742 25.7602 97.4627 25.4161 97.981 25.1442C98.4993 24.8766 99.0388 24.6684 99.5995 24.5707C100.165 24.456 100.738 24.4178 101.307 24.4815C101.876 24.5367 102.433 24.7576 103.032 24.9148L103.015 24.9021C103.015 24.9021 103.036 24.9105 103.045 24.9148L103.062 23.9972V17.9352C103.062 17.9352 103.057 17.9352 103.053 17.9352C103.053 17.9352 103.057 17.9309 103.062 17.9267C102.025 18.3685 100.887 18.3345 99.9436 17.9012C98.9963 17.4764 98.2699 16.6268 97.9597 15.6412C97.8748 15.3863 97.8196 15.1187 97.7983 14.8511C97.8875 14.8341 97.9767 14.8171 98.0659 14.7959C100.194 14.371 102.361 14.0949 104.502 14.2776C106.643 14.4687 108.741 15.1272 110.717 16.0235C112.696 16.9326 114.578 18.0754 116.52 19.1247C118.457 20.1697 120.479 21.1382 122.65 21.5843C123.733 21.8052 124.842 21.8944 125.946 21.8179C127.046 21.7032 128.134 21.4101 129.107 20.9004C128.083 21.2912 127.008 21.5163 125.929 21.5376" fill="white"/>
</svg>
